# xmcd CD database file
#
# Track frame offsets:
#	150
#	11862
#	25447
#	38225
#	51185
#	62570
#	75610
#	89582
#	101707
#	116197
#	127110
#	139210
#	159030
#	172967
#	185525
#
# Disc length: 2695 seconds
#
# Revision: 4
# Processed by: cddbd v1.5.2PL0 Copyright (c) Steve Scherf et al.
# Submitted via: CDex 1.51
#
DISCID=ce0a850f
DTITLE=Orquestra Românticos de Cuba - Quiereme Mucho
DYEAR=2002
DGENRE=Big Band
TTITLE0=Fascination, Ecstasy
TTITLE1=Amapola, Siete Notas de Amor
TTITLE2=Maria Elena, India
TTITLE3=Suas Mãos, Eu Não Existo Sem Você
TTITLE4=Esperame En El Cielo, Tu Me Acostumbraste
TTITLE5=Se Alguém Telefonar, Castigo
TTITLE6=Siboney, Desesperadamente
TTITLE7=Aquellos Ojos Verdes, Noche de Ronda
TTITLE8=Cuando Tu Me Quieras, Regalo de Viaje
TTITLE9=Till, Love Letters
TTITLE10=Balada Triste, Ontem é Hoje
TTITLE11=Quiereme Mucho, Vereda Tropical
TTITLE12=Frio En El Alma, Hipócrita
TTITLE13=Abrazame Así, Inultilmente
TTITLE14=Sinceridad, Amado Mio
EXTD=
EXTT0=
EXTT1=
EXTT2=
EXTT3=
EXTT4=
EXTT5=
EXTT6=
EXTT7=
EXTT8=
EXTT9=
EXTT10=
EXTT11=
EXTT12=
EXTT13=
EXTT14=
PLAYORDER=
